# xmcd
#
# Track frame offsets:
#	150
#	14445
#	27050
#	37175
#	48325
#	61047
#	73755
#	85822
#	93420
#	109480
#	122105
#	138445
#	151355
#	165635
#	178232
#
# Disc length: 2558
#
# Revision: 2
# Processed by: cddbd v1.5.1PL0 Copyright (c) Steve Scherf et al.
# Submitted via: EasyCDDAExtractor 6.5.0.1
# Normalized: r1:DSETVAR1
#
DISCID=cc09fc0f
DTITLE=Various Artist - Unforgettable Songs - CD2
DYEAR=1900
DGENRE=
TTITLE0=Nat King Cole - When I Fall In Love
TTITLE1=Johnny Mathis - Certain Smile
TTITLE2=Ricky Nelson - Never Be Anyone Else But You
TTITLE3=Timi Yuro - Only Love Can Break A Heart
TTITLE4=Buddy Holly - True Love Ways
TTITLE5=Johnny Ray - Just Walking In The Rain
TTITLE6=Brenda Lee - I'm Sorry
TTITLE7=Harry Secombe - Love Is A Many Splendoured Thing
TTITLE8=Perry Como - For The Good Times
TTITLE9=Matt Munro - Born Free
TTITLE10=Shirley Bassey - Never Never
TTITLE11=The Andrews Sisters - I'll Be With You In Apple Blossom Time
TTITLE12=Clarence Carter - Patches
TTITLE13=Jack Scott - My True Love
TTITLE14=Dusty Springfield - I Just Don't Know What To Do With Myself
EXTD=
EXTT0=
EXTT1=
EXTT2=
EXTT3=
EXTT4=
EXTT5=
EXTT6=
EXTT7=
EXTT8=
EXTT9=
EXTT10=
EXTT11=
EXTT12=
EXTT13=
EXTT14=
PLAYORDER=
